<svg width="201" height="56" viewBox="0 0 201 56" fill="none" xmlns="http://www.w3.org/2000/svg">
<g id="App Store">
<rect x="0.999452" y="0.70746" width="198.585" height="54.5851" rx="9.19698" fill="black"/>
<g id="App Store_2">
<path d="M121.605 25.2595V28.5011H119.573V30.6269H121.605V37.85C121.605 40.3165 122.721 41.3031 125.528 41.3031C126.021 41.3031 126.491 41.2443 126.902 41.1739V39.0715C126.55 39.1068 126.327 39.1302 125.939 39.1302C124.682 39.1302 124.13 38.543 124.13 37.2041V30.6269H126.902V28.5011H124.13V25.2595H121.605Z" fill="white"/>
<path d="M134.053 41.4792C137.788 41.4792 140.078 38.9776 140.078 34.8316C140.078 30.7091 137.776 28.1957 134.053 28.1957C130.318 28.1957 128.016 30.7091 128.016 34.8316C128.016 38.9776 130.306 41.4792 134.053 41.4792ZM134.053 39.2359C131.857 39.2359 130.623 37.6269 130.623 34.8316C130.623 32.0598 131.857 30.439 134.053 30.439C136.238 30.439 137.483 32.0598 137.483 34.8316C137.483 37.6151 136.238 39.2359 134.053 39.2359Z" fill="white"/>
<path d="M142.038 41.2326H144.563V33.6806C144.563 31.8836 145.914 30.6739 147.828 30.6739C148.274 30.6739 149.026 30.7561 149.237 30.8266V28.3366C148.967 28.2662 148.486 28.2309 148.11 28.2309C146.442 28.2309 145.021 29.147 144.657 30.4038H144.469V28.4424H142.038V41.2326Z" fill="white"/>
<path d="M155.507 30.345C157.375 30.345 158.596 31.6487 158.655 33.6571H152.195C152.336 31.6605 153.64 30.345 155.507 30.345ZM158.643 37.7796C158.173 38.7779 157.128 39.3299 155.601 39.3299C153.581 39.3299 152.277 37.9088 152.195 35.6655V35.5245H161.227V34.6437C161.227 30.6269 159.078 28.1957 155.519 28.1957C151.913 28.1957 149.623 30.7913 149.623 34.8786C149.623 38.9658 151.866 41.4792 155.531 41.4792C158.455 41.4792 160.499 40.0698 161.074 37.7796H158.643Z" fill="white"/>
<path d="M105.046 36.5094C105.24 39.6501 107.858 41.6587 111.753 41.6587C115.916 41.6587 118.521 39.5527 118.521 36.1928C118.521 33.5512 117.036 32.0905 113.433 31.2505L111.497 30.7757C109.209 30.2401 108.284 29.5219 108.284 28.268C108.284 26.6855 109.72 25.6508 111.875 25.6508C113.92 25.6508 115.332 26.6612 115.588 28.2802H118.241C118.083 25.3221 115.478 23.2405 111.911 23.2405C108.077 23.2405 105.52 25.3221 105.52 28.4506C105.52 31.0314 106.969 32.5652 110.146 33.3078L112.41 33.8556C114.736 34.4034 115.758 35.2068 115.758 36.5459C115.758 38.1041 114.151 39.2362 111.96 39.2362C109.611 39.2362 107.979 38.1771 107.748 36.5094H105.046Z" fill="white"/>
<path d="M78.8875 28.2309C77.1493 28.2309 75.6459 29.1001 74.8708 30.5564H74.6829V28.4424H72.2517V45.4843H74.7768V39.2947H74.9765C75.6459 40.6453 77.0906 41.444 78.911 41.444C82.1409 41.444 84.1963 38.8953 84.1963 34.8316C84.1963 30.7678 82.1409 28.2309 78.8875 28.2309ZM78.1711 39.1772C76.057 39.1772 74.7298 37.5094 74.7298 34.8433C74.7298 32.1655 76.057 30.4977 78.1828 30.4977C80.3204 30.4977 81.6006 32.1303 81.6006 34.8316C81.6006 37.5447 80.3204 39.1772 78.1711 39.1772Z" fill="white"/>
<path d="M93.0322 28.2309C91.2939 28.2309 89.7906 29.1001 89.0154 30.5564H88.8275V28.4424H86.3963V45.4843H88.9215V39.2947H89.1211C89.7906 40.6453 91.2352 41.444 93.0557 41.444C96.2855 41.444 98.3409 38.8953 98.3409 34.8316C98.3409 30.7678 96.2855 28.2309 93.0322 28.2309ZM92.3158 39.1772C90.2017 39.1772 88.8745 37.5094 88.8745 34.8433C88.8745 32.1655 90.2017 30.4977 92.3275 30.4977C94.4651 30.4977 95.7453 32.1303 95.7453 34.8316C95.7453 37.5447 94.4651 39.1772 92.3158 39.1772Z" fill="white"/>
<path d="M67.7211 41.2326H70.6183L64.276 23.6665H61.3423L55 41.2326H57.7999L59.4189 36.5702H66.1142L67.7211 41.2326ZM62.6692 26.8559H62.8761L65.4203 34.2816H60.1128L62.6692 26.8559Z" fill="white"/>
</g>
<g id="Download on the">
<path d="M56.2979 10.4169V18.8909H59.3574C61.8826 18.8909 63.3448 17.3347 63.3448 14.6275C63.3448 11.9614 61.8708 10.4169 59.3574 10.4169H56.2979ZM57.6133 11.6149H59.2106C60.9665 11.6149 62.0059 12.7307 62.0059 14.6451C62.0059 16.5889 60.9841 17.6929 59.2106 17.6929H57.6133V11.6149Z" fill="white"/>
<path d="M67.8232 19.0142C69.6906 19.0142 70.8357 17.7634 70.8357 15.6904C70.8357 13.6292 69.6847 12.3725 67.8232 12.3725C65.9557 12.3725 64.8047 13.6292 64.8047 15.6904C64.8047 17.7634 65.9498 19.0142 67.8232 19.0142ZM67.8232 17.8926C66.725 17.8926 66.1084 17.0881 66.1084 15.6904C66.1084 14.3045 66.725 13.4941 67.8232 13.4941C68.9154 13.4941 69.5379 14.3045 69.5379 15.6904C69.5379 17.0822 68.9154 17.8926 67.8232 17.8926Z" fill="white"/>
<path d="M80.5876 12.4958H79.325L78.1857 17.3758H78.0859L76.7704 12.4958H75.5607L74.2453 17.3758H74.1513L73.0062 12.4958H71.726L73.4877 18.8909H74.7856L76.101 14.1812H76.2008L77.5221 18.8909H78.8317L80.5876 12.4958Z" fill="white"/>
<path d="M82.0416 18.8909H83.3042V15.1502C83.3042 14.1518 83.8973 13.5294 84.831 13.5294C85.7647 13.5294 86.211 14.0403 86.211 15.0679V18.8909H87.4736V14.7508C87.4736 13.2299 86.6867 12.3725 85.2597 12.3725C84.2966 12.3725 83.6624 12.8012 83.3511 13.5117H83.2572V12.4958H82.0416V18.8909Z" fill="white"/>
<path d="M89.462 18.8909H90.7246V10H89.462V18.8909Z" fill="white"/>
<path d="M95.4731 19.0142C97.3405 19.0142 98.4857 17.7634 98.4857 15.6904C98.4857 13.6292 97.3347 12.3725 95.4731 12.3725C93.6056 12.3725 92.4546 13.6292 92.4546 15.6904C92.4546 17.7634 93.5998 19.0142 95.4731 19.0142ZM95.4731 17.8926C94.3749 17.8926 93.7583 17.0881 93.7583 15.6904C93.7583 14.3045 94.3749 13.4941 95.4731 13.4941C96.5654 13.4941 97.1878 14.3045 97.1878 15.6904C97.1878 17.0822 96.5654 17.8926 95.4731 17.8926Z" fill="white"/>
<path d="M102.248 17.9337C101.56 17.9337 101.061 17.599 101.061 17.0235C101.061 16.4597 101.461 16.1602 102.342 16.1015L103.904 16.0017V16.5361C103.904 17.3288 103.199 17.9337 102.248 17.9337ZM101.925 18.9966C102.764 18.9966 103.463 18.6325 103.845 17.9924H103.945V18.8909H105.16V14.5218C105.16 13.1711 104.256 12.3725 102.653 12.3725C101.202 12.3725 100.169 13.0772 100.04 14.1753H101.261C101.402 13.7231 101.889 13.4648 102.594 13.4648C103.457 13.4648 103.904 13.8465 103.904 14.5218V15.0738L102.171 15.1736C100.65 15.2676 99.7929 15.9312 99.7929 17.0822C99.7929 18.2508 100.691 18.9966 101.925 18.9966Z" fill="white"/>
<path d="M109.445 18.9966C110.326 18.9966 111.072 18.5797 111.453 17.8809H111.553V18.8909H112.763V10H111.5V13.5117H111.406C111.06 12.807 110.32 12.3901 109.445 12.3901C107.83 12.3901 106.79 13.6703 106.79 15.6904C106.79 17.7164 107.818 18.9966 109.445 18.9966ZM109.803 13.5235C110.86 13.5235 111.524 14.3632 111.524 15.6963C111.524 17.0352 110.866 17.8632 109.803 17.8632C108.734 17.8632 108.094 17.047 108.094 15.6904C108.094 14.3456 108.74 13.5235 109.803 13.5235Z" fill="white"/>
<path d="M120.95 19.0142C122.818 19.0142 123.963 17.7634 123.963 15.6904C123.963 13.6292 122.812 12.3725 120.95 12.3725C119.083 12.3725 117.932 13.6292 117.932 15.6904C117.932 17.7634 119.077 19.0142 120.95 19.0142ZM120.95 17.8926C119.852 17.8926 119.235 17.0881 119.235 15.6904C119.235 14.3045 119.852 13.4941 120.95 13.4941C122.042 13.4941 122.665 14.3045 122.665 15.6904C122.665 17.0822 122.042 17.8926 120.95 17.8926Z" fill="white"/>
<path d="M125.634 18.8909H126.897V15.1502C126.897 14.1518 127.49 13.5294 128.423 13.5294C129.357 13.5294 129.804 14.0403 129.804 15.0679V18.8909H131.066V14.7508C131.066 13.2299 130.279 12.3725 128.852 12.3725C127.889 12.3725 127.255 12.8012 126.944 13.5117H126.85V12.4958H125.634V18.8909Z" fill="white"/>
<path d="M136.881 10.9044V12.5252H135.865V13.5881H136.881V17.1996C136.881 18.4329 137.439 18.9262 138.842 18.9262C139.089 18.9262 139.324 18.8968 139.53 18.8616V17.8104C139.353 17.828 139.242 17.8397 139.048 17.8397C138.42 17.8397 138.144 17.5461 138.144 16.8767V13.5881H139.53V12.5252H138.144V10.9044H136.881Z" fill="white"/>
<path d="M141.224 18.8909H142.487V15.156C142.487 14.1871 143.062 13.5352 144.096 13.5352C144.989 13.5352 145.464 14.052 145.464 15.0738V18.8909H146.727V14.7626C146.727 13.2416 145.887 12.3783 144.525 12.3783C143.562 12.3783 142.886 12.807 142.575 13.5235H142.475V10H141.224V18.8909Z" fill="white"/>
<path d="M151.281 13.4471C152.215 13.4471 152.826 14.099 152.855 15.1032H149.625C149.696 14.1049 150.348 13.4471 151.281 13.4471ZM152.849 17.1644C152.615 17.6636 152.092 17.9396 151.328 17.9396C150.318 17.9396 149.667 17.229 149.625 16.1074V16.0369H154.141V15.5965C154.141 13.5881 153.067 12.3725 151.287 12.3725C149.485 12.3725 148.339 13.6703 148.339 15.7139C148.339 17.7575 149.461 19.0142 151.293 19.0142C152.755 19.0142 153.777 18.3095 154.065 17.1644H152.849Z" fill="white"/>
</g>
<g id="Apple logo">
<path d="M37.3384 26.9949C37.369 24.6164 38.6464 22.3658 40.6727 21.1201C39.3944 19.2944 37.2532 18.1368 35.0255 18.0671C32.6496 17.8177 30.3461 19.4889 29.1354 19.4889C27.9012 19.4889 26.037 18.0919 24.0296 18.1332C21.4131 18.2177 18.9738 19.7053 17.7008 21.9929C14.9644 26.7306 17.0055 33.6935 19.6268 37.5232C20.9383 39.3984 22.471 41.4931 24.4766 41.4189C26.4392 41.3375 27.1722 40.1674 29.5412 40.1674C31.8882 40.1674 32.5759 41.4189 34.6222 41.3716C36.7281 41.3374 38.0549 39.488 39.3204 37.595C40.2627 36.2588 40.9878 34.782 41.4689 33.2194C38.994 32.1726 37.3413 29.682 37.3384 26.9949Z" fill="white"/>
<path d="M33.4733 15.5486C34.6215 14.1701 35.1872 12.3984 35.0502 10.6096C33.296 10.7939 31.6755 11.6323 30.5118 12.9578C29.3738 14.253 28.7816 15.9935 28.8935 17.7139C30.6484 17.732 32.3736 16.9163 33.4733 15.5486Z" fill="white"/>
</g>
<rect x="0.999452" y="0.70746" width="198.585" height="54.5851" rx="9.19698" stroke="#A6A6A6" stroke-width="1.41492"/>
</g>
</svg>
