<svg width="200" height="56" viewBox="0 0 200 56" fill="none" xmlns="http://www.w3.org/2000/svg">
<g id="Google Play">
<rect x="0.70746" y="0.70746" width="198.585" height="54.5851" rx="6.36714" fill="black"/>
<path id="Google Play_2" d="M101.296 30.0626C97.9679 30.0626 95.2555 32.5939 95.2555 36.0803C95.2555 39.5454 97.9679 42.0979 101.296 42.0979C104.625 42.0979 107.337 39.5454 107.337 36.0803C107.336 32.5939 104.624 30.0626 101.296 30.0626ZM101.296 39.7294C99.472 39.7294 97.9 38.2253 97.9 36.0817C97.9 33.9155 99.4734 32.434 101.296 32.434C103.12 32.434 104.692 33.9155 104.692 36.0817C104.692 38.2239 103.12 39.7294 101.296 39.7294ZM88.1172 30.0626C84.7893 30.0626 82.0769 32.5939 82.0769 36.0803C82.0769 39.5454 84.7893 42.0979 88.1172 42.0979C91.4465 42.0979 94.1589 39.5454 94.1589 36.0803C94.1589 32.5939 91.4465 30.0626 88.1172 30.0626ZM88.1172 39.7294C86.2934 39.7294 84.7214 38.2253 84.7214 36.0817C84.7214 33.9155 86.2948 32.434 88.1172 32.434C89.9411 32.434 91.513 33.9155 91.513 36.0817C91.5144 38.2239 89.9411 39.7294 88.1172 39.7294ZM72.4427 31.9105V34.463H78.5524C78.3698 35.8992 77.8916 36.9476 77.1615 37.6763C76.2729 38.5649 74.8821 39.5454 72.4427 39.5454C68.6819 39.5454 65.7417 36.5133 65.7417 32.7524C65.7417 28.9915 68.6819 25.9594 72.4427 25.9594C74.4717 25.9594 75.9532 26.7574 77.0469 27.7832L78.8481 25.982C77.32 24.5232 75.2924 23.4069 72.4427 23.4069C67.291 23.4069 62.96 27.6007 62.96 32.7524C62.96 37.9041 67.291 42.0979 72.4427 42.0979C75.2231 42.0979 77.3214 41.1853 78.9613 39.4761C80.6479 37.7895 81.1728 35.4181 81.1728 33.5037C81.1728 32.9123 81.1275 32.3647 81.0356 31.9091H72.4427V31.9105ZM136.55 33.8928C136.049 32.5487 134.521 30.0626 131.398 30.0626C128.298 30.0626 125.722 32.502 125.722 36.0803C125.722 39.4535 128.275 42.0979 131.694 42.0979C134.452 42.0979 136.048 40.4114 136.71 39.4308L134.658 38.0626C133.975 39.0658 133.04 39.7265 131.694 39.7265C130.35 39.7265 129.392 39.111 128.776 37.9027L136.823 34.5748L136.55 33.8928ZM128.343 35.8992C128.275 33.5731 130.145 32.3888 131.49 32.3888C132.539 32.3888 133.427 32.9137 133.724 33.665L128.343 35.8992ZM121.802 41.7343H124.445V24.0464H121.802V41.7343ZM117.47 31.4082H117.379C116.786 30.7008 115.646 30.0626 114.211 30.0626C111.202 30.0626 108.444 32.7071 108.444 36.1043C108.444 39.4775 111.202 42.0994 114.211 42.0994C115.647 42.0994 116.786 41.4612 117.379 40.7325H117.47V41.5985C117.47 43.9005 116.239 45.1315 114.256 45.1315C112.638 45.1315 111.635 43.9699 111.224 42.9893L108.922 43.9472C109.583 45.5419 111.337 47.5029 114.256 47.5029C117.357 47.5029 119.978 45.6791 119.978 41.2334V30.4291H117.471V31.4082H117.47ZM114.439 39.7294C112.615 39.7294 111.088 38.2013 111.088 36.1043C111.088 33.9834 112.615 32.434 114.439 32.434C116.239 32.434 117.652 33.9834 117.652 36.1043C117.652 38.2013 116.239 39.7294 114.439 39.7294ZM148.936 24.0464H142.61V41.7343H145.249V35.0333H148.935C151.861 35.0333 154.739 32.9151 154.739 29.5405C154.739 26.166 151.862 24.0464 148.936 24.0464ZM149.004 32.5713H145.249V26.5084H149.004C150.978 26.5084 152.098 28.1426 152.098 29.5405C152.098 30.9102 150.978 32.5713 149.004 32.5713ZM165.321 30.0315C163.409 30.0315 161.43 30.8734 160.611 32.7397L162.954 33.7174C163.455 32.7397 164.388 32.4199 165.366 32.4199C166.732 32.4199 168.12 33.2391 168.142 34.6951V34.8776C167.664 34.6045 166.64 34.1956 165.389 34.1956C162.863 34.1956 160.291 35.5837 160.291 38.1772C160.291 40.5444 162.362 42.0682 164.683 42.0682C166.457 42.0682 167.436 41.2716 168.05 40.3378H168.141V41.7032H170.69V34.9215C170.692 31.7832 168.346 30.0315 165.321 30.0315ZM165.001 39.7251C164.138 39.7251 162.931 39.2922 162.931 38.2225C162.931 36.8571 164.434 36.3336 165.731 36.3336C166.89 36.3336 167.438 36.584 168.142 36.925C167.937 38.5649 166.526 39.7251 165.001 39.7251ZM179.975 30.4178L176.949 38.0866H176.858L173.717 30.4178H170.873L175.583 41.1358L172.898 47.0983H175.651L182.911 30.4178H179.975ZM156.196 41.7343H158.835V24.0464H156.196V41.7343Z" fill="white"/>
<g id="Get it on">
<path d="M71.5829 13.7795C71.5829 14.9652 71.232 15.909 70.5288 16.6136C69.7308 17.4512 68.6894 17.8701 67.4103 17.8701C66.185 17.8701 65.1422 17.4456 64.2862 16.5966C63.4287 15.7463 63 14.6936 63 13.4371C63 12.1793 63.4287 11.1266 64.2862 10.2776C65.1422 9.42724 66.185 9.00276 67.4103 9.00276C68.0187 9.00276 68.6002 9.12162 69.1521 9.35791C69.7053 9.59562 70.1482 9.91114 70.4793 10.3059L69.7336 11.053C69.1719 10.3809 68.3979 10.0456 67.4089 10.0456C66.5147 10.0456 65.7421 10.3597 65.0898 10.9879C64.4376 11.6161 64.1121 12.4325 64.1121 13.4357C64.1121 14.4389 64.4376 15.2553 65.0898 15.8835C65.7421 16.5117 66.5147 16.8259 67.4089 16.8259C68.3569 16.8259 69.1478 16.5103 69.7803 15.8779C70.1906 15.4661 70.4283 14.8931 70.492 14.1587H67.4089V13.1386H71.5221C71.5645 13.3607 71.5829 13.5744 71.5829 13.7795Z" fill="white"/>
<path d="M78.1058 10.2338H74.2403V12.925H77.7266V13.9452H74.2403V16.6363H78.1058V17.6805H73.1494V9.19103H78.1058V10.2338Z" fill="white"/>
<path d="M82.7056 17.6805H81.6147V10.2338H79.2432V9.19103H85.077V10.2338H82.7056V17.6805Z" fill="white"/>
<path d="M89.2976 17.6805V9.19103H90.3885V17.6805H89.2976Z" fill="white"/>
<path d="M95.2263 17.6805H94.1354V10.2338H91.764V9.19103H97.5977V10.2338H95.2263V17.6805Z" fill="white"/>
<path d="M108.641 16.584C107.806 17.4414 106.769 17.8701 105.528 17.8701C104.287 17.8701 103.25 17.4414 102.417 16.584C101.582 15.7265 101.166 14.6767 101.166 13.4358C101.166 12.1949 101.582 11.145 102.417 10.2876C103.25 9.43014 104.287 9 105.528 9C106.762 9 107.798 9.43155 108.635 10.2932C109.473 11.1549 109.892 12.202 109.892 13.4358C109.892 14.6767 109.474 15.7265 108.641 16.584ZM103.222 15.8723C103.85 16.509 104.618 16.8259 105.528 16.8259C106.438 16.8259 107.208 16.5076 107.834 15.8723C108.463 15.2355 108.778 14.4234 108.778 13.4358C108.778 12.4482 108.463 11.636 107.834 10.9993C107.208 10.3626 106.438 10.0456 105.528 10.0456C104.618 10.0456 103.85 10.364 103.222 10.9993C102.595 11.636 102.279 12.4482 102.279 13.4358C102.279 14.4234 102.595 15.2355 103.222 15.8723Z" fill="white"/>
<path d="M111.423 17.6805V9.19103H112.75L116.876 15.7945H116.922L116.876 14.1588V9.19103H117.967V17.6805H116.828L112.511 10.7559H112.464L112.511 12.3916V17.6805H111.423Z" fill="white"/>
<path d="M71.5829 13.7795C71.5829 14.9652 71.232 15.909 70.5288 16.6136C69.7308 17.4512 68.6894 17.8701 67.4103 17.8701C66.185 17.8701 65.1422 17.4456 64.2862 16.5966C63.4287 15.7463 63 14.6936 63 13.4371C63 12.1793 63.4287 11.1266 64.2862 10.2776C65.1422 9.42724 66.185 9.00276 67.4103 9.00276C68.0187 9.00276 68.6002 9.12162 69.1521 9.35791C69.7053 9.59562 70.1482 9.91114 70.4793 10.3059L69.7336 11.053C69.1719 10.3809 68.3979 10.0456 67.4089 10.0456C66.5147 10.0456 65.7421 10.3597 65.0898 10.9879C64.4376 11.6161 64.1121 12.4325 64.1121 13.4357C64.1121 14.4389 64.4376 15.2553 65.0898 15.8835C65.7421 16.5117 66.5147 16.8259 67.4089 16.8259C68.3569 16.8259 69.1478 16.5103 69.7803 15.8779C70.1906 15.4661 70.4283 14.8931 70.492 14.1587H67.4089V13.1386H71.5221C71.5645 13.3607 71.5829 13.5744 71.5829 13.7795Z" stroke="white" stroke-width="0.282984" stroke-miterlimit="10"/>
<path d="M78.1058 10.2338H74.2403V12.925H77.7266V13.9452H74.2403V16.6363H78.1058V17.6805H73.1494V9.19103H78.1058V10.2338Z" stroke="white" stroke-width="0.282984" stroke-miterlimit="10"/>
<path d="M82.7056 17.6805H81.6147V10.2338H79.2432V9.19103H85.077V10.2338H82.7056V17.6805Z" stroke="white" stroke-width="0.282984" stroke-miterlimit="10"/>
<path d="M89.2976 17.6805V9.19103H90.3885V17.6805H89.2976Z" stroke="white" stroke-width="0.282984" stroke-miterlimit="10"/>
<path d="M95.2263 17.6805H94.1354V10.2338H91.764V9.19103H97.5977V10.2338H95.2263V17.6805Z" stroke="white" stroke-width="0.282984" stroke-miterlimit="10"/>
<path d="M108.641 16.584C107.806 17.4414 106.769 17.8701 105.528 17.8701C104.287 17.8701 103.25 17.4414 102.417 16.584C101.582 15.7265 101.166 14.6767 101.166 13.4358C101.166 12.1949 101.582 11.145 102.417 10.2876C103.25 9.43014 104.287 9 105.528 9C106.762 9 107.798 9.43155 108.635 10.2932C109.473 11.1549 109.892 12.202 109.892 13.4358C109.892 14.6767 109.474 15.7265 108.641 16.584ZM103.222 15.8723C103.85 16.509 104.618 16.8259 105.528 16.8259C106.438 16.8259 107.208 16.5076 107.834 15.8723C108.463 15.2355 108.778 14.4234 108.778 13.4358C108.778 12.4482 108.463 11.636 107.834 10.9993C107.208 10.3626 106.438 10.0456 105.528 10.0456C104.618 10.0456 103.85 10.364 103.222 10.9993C102.595 11.636 102.279 12.4482 102.279 13.4358C102.279 14.4234 102.595 15.2355 103.222 15.8723Z" stroke="white" stroke-width="0.282984" stroke-miterlimit="10"/>
<path d="M111.423 17.6805V9.19103H112.75L116.876 15.7945H116.922L116.876 14.1588V9.19103H117.967V17.6805H116.828L112.511 10.7559H112.464L112.511 12.3916V17.6805H111.423Z" stroke="white" stroke-width="0.282984" stroke-miterlimit="10"/>
</g>
<g id="Google Play logo" filter="url(#filter0_ii_6692_3754)">
<path id="Vector" d="M16.6551 10.5619C16.2434 10.9977 16 11.674 16 12.5499V43.8422C16 44.7195 16.2434 45.3944 16.6551 45.8302L16.7598 45.9321L34.2892 28.4026V28.196V27.9895L16.7598 10.4586L16.6551 10.5619Z" fill="url(#paint0_linear_6692_3754)"/>
<path id="Vector_2" d="M40.1308 34.2476L34.2886 28.4025V28.1959V27.9894L40.1322 22.1458L40.2638 22.2207L47.187 26.1542C49.1636 27.2777 49.1636 29.1156 47.187 30.2405L40.2638 34.174L40.1308 34.2476Z" fill="url(#paint1_linear_6692_3754)"/>
<g id="Vector_3" filter="url(#filter1_i_6692_3754)">
<path d="M40.2641 34.1727L34.2875 28.196L16.6548 45.8302C17.3056 46.5207 18.3824 46.6056 19.595 45.9179L40.2641 34.1727Z" fill="url(#paint2_linear_6692_3754)"/>
</g>
<path id="Vector_4" d="M40.2641 22.2194L19.595 10.4755C18.3824 9.78645 17.3056 9.87276 16.6548 10.5632L34.2889 28.1974L40.2641 22.2194Z" fill="url(#paint3_linear_6692_3754)"/>
</g>
<rect x="0.70746" y="0.70746" width="198.585" height="54.5851" rx="6.36714" stroke="#A6A6A6" stroke-width="1.41492"/>
</g>
<defs>
<filter id="filter0_ii_6692_3754" x="16" y="10" width="32.6694" height="36.3928" filterUnits="userSpaceOnUse" color-interpolation-filters="sRGB">
<feFlood flood-opacity="0" result="BackgroundImageFix"/>
<feBlend mode="normal" in="SourceGraphic" in2="BackgroundImageFix" result="shape"/>
<feColorMatrix in="SourceAlpha" type="matrix" values="0 0 0 0 0 0 0 0 0 0 0 0 0 0 0 0 0 0 127 0" result="hardAlpha"/>
<feOffset dy="-0.212238"/>
<feComposite in2="hardAlpha" operator="arithmetic" k2="-1" k3="1"/>
<feColorMatrix type="matrix" values="0 0 0 0 0 0 0 0 0 0 0 0 0 0 0 0 0 0 0.12 0"/>
<feBlend mode="normal" in2="shape" result="effect1_innerShadow_6692_3754"/>
<feColorMatrix in="SourceAlpha" type="matrix" values="0 0 0 0 0 0 0 0 0 0 0 0 0 0 0 0 0 0 127 0" result="hardAlpha"/>
<feOffset dy="0.212238"/>
<feComposite in2="hardAlpha" operator="arithmetic" k2="-1" k3="1"/>
<feColorMatrix type="matrix" values="0 0 0 0 1 0 0 0 0 1 0 0 0 0 1 0 0 0 0.25 0"/>
<feBlend mode="normal" in2="effect1_innerShadow_6692_3754" result="effect2_innerShadow_6692_3754"/>
</filter>
<filter id="filter1_i_6692_3754" x="16.6548" y="28.196" width="23.6094" height="18.1968" filterUnits="userSpaceOnUse" color-interpolation-filters="sRGB">
<feFlood flood-opacity="0" result="BackgroundImageFix"/>
<feBlend mode="normal" in="SourceGraphic" in2="BackgroundImageFix" result="shape"/>
<feColorMatrix in="SourceAlpha" type="matrix" values="0 0 0 0 0 0 0 0 0 0 0 0 0 0 0 0 0 0 127 0" result="hardAlpha"/>
<feOffset dy="-0.212238"/>
<feComposite in2="hardAlpha" operator="arithmetic" k2="-1" k3="1"/>
<feColorMatrix type="matrix" values="0 0 0 0 0 0 0 0 0 0 0 0 0 0 0 0 0 0 0.08 0"/>
<feBlend mode="normal" in2="shape" result="effect1_innerShadow_6692_3754"/>
</filter>
<linearGradient id="paint0_linear_6692_3754" x1="32.7354" y1="12.2188" x2="8.99021" y2="35.964" gradientUnits="userSpaceOnUse">
<stop stop-color="#00A0FF"/>
<stop offset="0.0066" stop-color="#00A1FF"/>
<stop offset="0.2601" stop-color="#00BEFF"/>
<stop offset="0.5122" stop-color="#00D2FF"/>
<stop offset="0.7604" stop-color="#00DFFF"/>
<stop offset="1" stop-color="#00E3FF"/>
</linearGradient>
<linearGradient id="paint1_linear_6692_3754" x1="49.76" y1="28.1959" x2="15.5248" y2="28.1959" gradientUnits="userSpaceOnUse">
<stop stop-color="#FFE000"/>
<stop offset="0.4087" stop-color="#FFBD00"/>
<stop offset="0.7754" stop-color="#FFA500"/>
<stop offset="1" stop-color="#FF9C00"/>
</linearGradient>
<linearGradient id="paint2_linear_6692_3754" x1="37.0184" y1="31.4417" x2="4.81701" y2="63.6432" gradientUnits="userSpaceOnUse">
<stop stop-color="#FF3A44"/>
<stop offset="1" stop-color="#C31162"/>
</linearGradient>
<linearGradient id="paint3_linear_6692_3754" x1="12.2139" y1="0.146327" x2="26.5928" y2="14.5252" gradientUnits="userSpaceOnUse">
<stop stop-color="#32A071"/>
<stop offset="0.0685" stop-color="#2DA771"/>
<stop offset="0.4762" stop-color="#15CF74"/>
<stop offset="0.8009" stop-color="#06E775"/>
<stop offset="1" stop-color="#00F076"/>
</linearGradient>
</defs>
</svg>
